<?xml version="1.0" standalone="no"?>
<!DOCTYPE svg PUBLIC "-//W3C//DTD SVG 20010904//EN"
 "http://www.w3.org/TR/2001/REC-SVG-20010904/DTD/svg10.dtd">
<svg version="1.0" xmlns="http://www.w3.org/2000/svg"
 width="1000.000000pt" height="955.000000pt" viewBox="0 0 1000.000000 955.000000"
 preserveAspectRatio="xMidYMid meet">
<metadata>
Created by potrace 1.16, written by Peter Selinger 2001-2019
</metadata>
<g transform="translate(0.000000,955.000000) scale(0.100000,-0.100000)"
fill="#000000" stroke="none">
<path d="M4477 8833 c-4 -3 -7 -183 -7 -400 l0 -393 -605 0 -605 0 0 -525 0
-525 605 0 605 0 0 -1030 c0 -566 -2 -1030 -4 -1030 -17 0 -190 -36 -271 -56
-942 -236 -1733 -871 -2168 -1739 -68 -138 -167 -370 -167 -395 0 -7 984 -10
3140 -10 2156 0 3140 3 3140 10 0 6 -21 63 -46 128 -361 912 -1121 1631 -2049
1935 -151 50 -291 86 -424 111 -46 9 -85 16 -87 16 -2 0 -4 464 -4 1030 l0
1030 605 0 605 0 0 525 0 525 -605 0 -605 0 -2 398 -3 397 -521 3 c-286 1
-524 -1 -527 -5z"/>
<path d="M2220 2310 c-109 -23 -211 -103 -263 -206 -81 -162 -53 -368 65 -487
127 -127 350 -137 487 -21 38 32 96 113 87 122 -4 3 -30 -19 -59 -50 -68 -74
-127 -101 -220 -100 -121 1 -196 51 -249 168 -20 43 -23 64 -22 179 0 109 4
139 22 185 46 117 124 173 242 173 114 0 186 -52 240 -175 12 -27 23 -48 26
-48 7 0 -6 251 -13 263 -3 5 -17 -5 -32 -23 l-26 -31 -63 26 c-71 29 -156 38
-222 25z"/>
<path d="M2660 2291 c0 -4 19 -11 42 -14 23 -3 48 -14 55 -23 10 -14 13 -93
13 -339 0 -361 2 -349 -74 -362 -21 -3 -33 -10 -28 -15 4 -4 139 -7 298 -6
l289 3 33 94 c30 88 34 131 8 87 -26 -43 -73 -100 -98 -119 -24 -18 -44 -20
-158 -21 -119 -1 -133 1 -146 18 -11 15 -14 55 -14 168 l0 148 114 0 c130 0
160 -13 172 -75 13 -73 24 -29 24 101 0 126 -9 164 -23 95 -13 -65 -72 -86
-217 -79 l-65 3 -3 153 -3 152 128 -1 c169 0 192 -9 218 -76 11 -29 24 -53 28
-53 4 0 7 37 5 83 l-3 82 -297 3 c-168 1 -298 -2 -298 -7z"/>
<path d="M3370 2291 c0 -5 14 -11 32 -15 70 -14 68 -3 68 -362 0 -357 2 -347
-65 -360 -72 -13 -30 -24 95 -24 124 0 167 11 98 24 -66 13 -63 -2 -68 316 -3
159 -3 290 0 290 3 0 24 -42 46 -93 149 -330 248 -537 256 -535 10 4 288 602
288 619 0 5 5 9 11 9 13 0 8 -544 -5 -573 -5 -10 -28 -23 -52 -29 -24 -7 -44
-16 -44 -20 0 -4 72 -8 160 -8 100 0 160 4 160 10 0 6 -9 10 -20 10 -34 0 -70
23 -78 49 -4 14 -7 164 -7 332 0 340 -1 335 66 345 74 12 39 24 -69 24 l-107
0 -134 -295 c-74 -162 -137 -295 -140 -295 -3 0 -67 133 -141 295 l-135 295
-107 0 c-60 0 -108 -4 -108 -9z"/>
<path d="M4400 2290 c0 -5 11 -10 25 -10 37 0 73 -20 79 -44 3 -11 6 -158 6
-326 0 -345 0 -345 -71 -356 -21 -4 -39 -11 -39 -15 0 -5 129 -8 296 -7 l297
3 32 93 c18 51 29 95 24 97 -4 3 -25 -21 -46 -52 -58 -87 -82 -97 -236 -98
-103 0 -130 3 -137 15 -5 8 -10 84 -10 168 l0 152 113 0 c130 0 150 -9 167
-70 20 -75 30 -43 30 95 0 79 -4 135 -10 135 -5 0 -12 -15 -15 -32 -14 -71
-50 -87 -197 -88 l-88 0 0 156 0 156 144 -4 c134 -3 146 -5 169 -26 13 -12 29
-41 36 -62 24 -82 38 -37 25 78 l-7 52 -293 0 c-189 0 -294 -4 -294 -10z"/>
<path d="M5126 2254 c-9 -66 -8 -134 2 -134 5 0 14 18 21 39 6 22 25 51 42 65
27 23 39 26 110 26 l79 0 0 -328 c0 -365 2 -354 -68 -368 -73 -15 -22 -24 128
-24 152 0 205 10 121 24 -67 10 -66 3 -69 369 l-3 329 90 -3 c78 -4 93 -7 115
-28 15 -14 31 -42 38 -63 19 -63 29 -43 26 50 l-3 87 -311 3 -311 2 -7 -46z"/>
<path d="M5820 2291 c0 -4 16 -11 36 -14 67 -11 64 4 64 -358 0 -363 2 -352
-65 -365 -90 -17 -12 -24 258 -24 l292 0 32 92 c36 102 30 134 -10 65 -15 -24
-42 -58 -61 -75 -31 -27 -44 -31 -121 -37 -100 -9 -181 -3 -198 14 -8 8 -13
64 -15 166 l-3 155 118 0 c135 0 156 -10 169 -75 13 -73 24 -30 24 101 0 129
-10 166 -24 89 -11 -57 -40 -69 -170 -70 l-111 0 0 150 0 150 140 0 c167 0
188 -8 206 -80 6 -25 15 -45 20 -45 5 0 9 38 9 85 l0 85 -295 0 c-162 0 -295
-4 -295 -9z"/>
<path d="M6520 2293 c0 -5 19 -13 42 -19 67 -14 68 -18 68 -359 0 -341 -1
-345 -68 -359 -23 -6 -42 -13 -42 -18 0 -4 74 -8 165 -8 155 0 211 10 129 23
-70 12 -74 22 -74 189 l0 149 40 -3 c39 -3 42 -6 168 -178 l128 -175 103 -3
c79 -2 102 0 99 10 -3 7 -18 15 -35 19 -52 10 -96 44 -149 116 -103 137 -165
225 -162 227 2 1 26 11 53 21 166 61 177 268 18 346 -45 22 -61 24 -265 27
-129 3 -218 0 -218 -5z m394 -62 c72 -40 97 -136 55 -211 -33 -58 -76 -82
-160 -88 l-69 -5 0 161 0 161 38 4 c53 5 102 -3 136 -22z"/>
<path d="M7280 2291 c0 -5 11 -11 23 -15 46 -11 78 -49 202 -237 l125 -190 0
-122 c0 -143 -8 -163 -71 -173 -85 -14 -31 -24 126 -24 157 0 211 10 126 24
-63 10 -71 30 -71 178 l0 127 111 173 c127 198 149 224 201 240 21 6 38 15 38
20 0 4 -61 8 -135 8 -83 0 -135 -4 -135 -10 0 -5 8 -10 18 -10 27 0 62 -29 62
-51 0 -27 -19 -61 -108 -202 l-75 -119 -88 135 c-48 74 -93 145 -99 157 -18
34 1 67 45 76 78 14 26 24 -130 24 -91 0 -165 -4 -165 -9z"/>
<path d="M0 400 l0 -400 5000 0 5000 0 0 400 0 400 -5000 0 -5000 0 0 -400z
m1395 106 c24 -11 33 -20 29 -30 -5 -14 -9 -14 -34 -1 -36 18 -61 19 -84 2
-28 -21 -9 -45 49 -62 87 -25 108 -74 54 -127 -29 -29 -33 -30 -90 -25 -68 6
-72 8 -63 30 4 12 11 13 35 5 72 -25 139 23 89 64 -12 10 -30 18 -39 18 -9 0
-31 9 -48 20 -25 15 -33 27 -33 47 1 64 60 90 135 59z m587 -46 l3 -61 35 30
c19 17 44 30 55 31 16 0 12 -7 -20 -40 l-39 -40 42 -60 c40 -57 41 -60 20 -60
-16 0 -32 14 -53 45 -16 24 -33 45 -37 45 -5 0 -8 -20 -8 -45 0 -38 -3 -45
-20 -45 -19 0 -20 7 -20 130 0 122 1 130 20 130 16 0 19 -8 22 -60z m-1353
-26 c12 -15 21 -40 21 -55 0 -29 0 -29 -65 -29 -72 0 -83 -12 -44 -51 17 -17
30 -20 65 -16 43 4 59 -5 28 -17 -69 -27 -134 19 -134 95 0 87 82 133 129 73z
m456 3 c20 -16 28 -35 32 -69 5 -42 3 -50 -25 -78 -41 -41 -83 -41 -124 0 -28
28 -30 36 -25 78 9 82 84 119 142 69z m630 -2 c20 -19 25 -34 25 -75 0 -63
-30 -100 -82 -100 -66 0 -103 56 -87 130 16 69 95 94 144 45z"/>
<path d="M986 424 c-50 -50 -21 -144 44 -144 48 0 80 50 66 104 -13 53 -75 75
-110 40z"/>
</g>
</svg>
